# xmcd
#
# Track frame offsets: 
#        150
#        16504
#        29338
#        43734
#        56847
#        72748
#        92298
#        109274
#        128917
#        143388
#        159217
#        176637
#        193805
#        210306
#        225209
#        239127
#        260903
#        277470
#        290078
#
# Disc length: 4063 seconds
#
# Revision: 0
# Processed by: cddbd v1.5.2PL0 Copyright (c) Steve Scherf et al.
# Submitted via: ExactAudioCopy v0.99pb4
#
DISCID=1b0fdd13
DTITLE=Kenny Rogers - The Best Of Country Music CD 1
DYEAR=2003
DGENRE=Country
TTITLE0=Lucille
TTITLE1=Ruby Don't Take Your Love To Town
TTITLE2=Daytime Friends
TTITLE3=Love Or Something Like It
TTITLE4=The Gambler
TTITLE5=She Believes In Me
TTITLE6=You Decorated My Life
TTITLE7=Coward Of The Country
TTITLE8=Love The World Away
TTITLE9=Good Lady Of Toronto
TTITLE10=We've Got Tonight
TTITLE11=Lady
TTITLE12=Love Will Turn You Around
TTITLE13=Crazy
TTITLE14=All I Ever Need Is You
TTITLE15=Have I Told You Lately That I Love You
TTITLE16=Don't Fall In Love With A Dreamer
TTITLE17=Reuben James
TTITLE18=For The Good Times
EXTD=
EXTT0=
EXTT1=
EXTT2=
EXTT3=
EXTT4=
EXTT5=
EXTT6=
EXTT7=
EXTT8=
EXTT9=
EXTT10=
EXTT11=
EXTT12=
EXTT13=
EXTT14=
EXTT15=
EXTT16=
EXTT17=
EXTT18=
PLAYORDER=
